<svg xmlns="http://www.w3.org/2000/svg" viewBox="0 0 1600 1000" width="1600" height="1000" role="img" aria-label="Red Herrings">
  <defs>
    <linearGradient id="g" x1="0.924" y1="0.076" x2="0.076" y2="0.924">
      <stop offset="0" stop-color="#06281a"/>
      <stop offset="0.62" stop-color="#1fa85b"/>
      <stop offset="1" stop-color="#1fa85b"/>
    </linearGradient>
    <radialGradient id="glow1" cx="0.62" cy="0.25" r="0.6">
      <stop offset="0" stop-color="#ffffff" stop-opacity="0.24"/>
      <stop offset="1" stop-color="#ffffff" stop-opacity="0"/>
    </radialGradient>
    <radialGradient id="glow2" cx="0.75" cy="0.9" r="0.7">
      <stop offset="0" stop-color="#06281a" stop-opacity="0.55"/>
      <stop offset="1" stop-color="#06281a" stop-opacity="0"/>
    </radialGradient>
  </defs>
  <rect width="1600" height="1000" fill="url(#g)"/>
  <rect width="1600" height="1000" fill="url(#glow2)"/>
  <g transform="translate(604,272) scale(18)" fill="none" stroke="#ffffff" stroke-width="0.85" stroke-linecap="round" stroke-linejoin="round" opacity="0.10"><rect x="6" y="2" width="12" height="20" rx="2.4"/><line x1="10.2" y1="18.4" x2="13.8" y2="18.4"/></g>
  <rect width="1600" height="1000" fill="url(#glow1)"/>
  <g transform="translate(1270,700) scale(5.1)" opacity="0.10">
    <path fill-rule="evenodd" d="M6 32c9-11 20-16 30-16C40 16 44 19 48 25C51 22 56.5 15.5 62.25 11.75C58.38 18.12 55.69 25.81 54.44 32C55.69 38.19 58.38 45.88 62.25 52.25C56.5 48.5 51 42 48 39C44 45 40 48 36 48c-10 0-21-5-30-16z M20 24.8a5.6 5.6 0 1 0 0 11.2 5.6 5.6 0 1 0 0-11.2z" fill="#ffffff"/>
  </g>
</svg>
