<svg xmlns="http://www.w3.org/2000/svg" viewBox="0 0 1600 1000" width="1600" height="1000" role="img" aria-label="Red Herrings">
  <defs>
    <linearGradient id="g" x1="0.997" y1="0.164" x2="0.003" y2="0.836">
      <stop offset="0" stop-color="#0c1622"/>
      <stop offset="0.62" stop-color="#4f6b8f"/>
      <stop offset="1" stop-color="#4f6b8f"/>
    </linearGradient>
    <radialGradient id="glow1" cx="0.23" cy="0.25" r="0.6">
      <stop offset="0" stop-color="#ffffff" stop-opacity="0.26"/>
      <stop offset="1" stop-color="#ffffff" stop-opacity="0"/>
    </radialGradient>
    <radialGradient id="glow2" cx="0.83" cy="0.9" r="0.7">
      <stop offset="0" stop-color="#0c1622" stop-opacity="0.55"/>
      <stop offset="1" stop-color="#0c1622" stop-opacity="0"/>
    </radialGradient>
  </defs>
  <rect width="1600" height="1000" fill="url(#g)"/>
  <rect width="1600" height="1000" fill="url(#glow2)"/>
  <g>
    <circle cx="1086" cy="654" r="136" fill="none" stroke="#fff" stroke-width="10" opacity="0.07"/>
    <circle cx="1086" cy="654" r="57" fill="none" stroke="#fff" stroke-width="6" opacity="0.07"/>
    <line x1="1221" y1="654" x2="1243" y2="654" stroke="#fff" stroke-width="10" opacity="0.07"/>
    <line x1="1195" y1="734" x2="1213" y2="747" stroke="#fff" stroke-width="10" opacity="0.07"/>
    <line x1="1127" y1="783" x2="1134" y2="804" stroke="#fff" stroke-width="10" opacity="0.07"/>
    <line x1="1044" y1="783" x2="1037" y2="804" stroke="#fff" stroke-width="10" opacity="0.07"/>
    <line x1="976" y1="734" x2="958" y2="747" stroke="#fff" stroke-width="10" opacity="0.07"/>
    <line x1="950" y1="654" x2="928" y2="654" stroke="#fff" stroke-width="10" opacity="0.07"/>
    <line x1="976" y1="574" x2="958" y2="561" stroke="#fff" stroke-width="10" opacity="0.07"/>
    <line x1="1044" y1="525" x2="1037" y2="504" stroke="#fff" stroke-width="10" opacity="0.07"/>
    <line x1="1127" y1="525" x2="1134" y2="504" stroke="#fff" stroke-width="10" opacity="0.07"/>
    <line x1="1195" y1="574" x2="1213" y2="561" stroke="#fff" stroke-width="10" opacity="0.07"/>
    <circle cx="501" cy="469" r="105" fill="none" stroke="#fff" stroke-width="10" opacity="0.09"/>
    <circle cx="501" cy="469" r="44" fill="none" stroke="#fff" stroke-width="6" opacity="0.09"/>
    <line x1="606" y1="469" x2="628" y2="469" stroke="#fff" stroke-width="10" opacity="0.09"/>
    <line x1="586" y1="531" x2="604" y2="544" stroke="#fff" stroke-width="10" opacity="0.09"/>
    <line x1="533" y1="570" x2="540" y2="591" stroke="#fff" stroke-width="10" opacity="0.09"/>
    <line x1="468" y1="570" x2="461" y2="591" stroke="#fff" stroke-width="10" opacity="0.09"/>
    <line x1="415" y1="531" x2="397" y2="544" stroke="#fff" stroke-width="10" opacity="0.09"/>
    <line x1="395" y1="469" x2="373" y2="469" stroke="#fff" stroke-width="10" opacity="0.09"/>
    <line x1="415" y1="407" x2="397" y2="395" stroke="#fff" stroke-width="10" opacity="0.09"/>
    <line x1="468" y1="369" x2="461" y2="348" stroke="#fff" stroke-width="10" opacity="0.09"/>
    <line x1="533" y1="369" x2="540" y2="348" stroke="#fff" stroke-width="10" opacity="0.09"/>
    <line x1="586" y1="407" x2="604" y2="395" stroke="#fff" stroke-width="10" opacity="0.09"/>
    <circle cx="1032" cy="453" r="111" fill="none" stroke="#fff" stroke-width="10" opacity="0.07"/>
    <circle cx="1032" cy="453" r="47" fill="none" stroke="#fff" stroke-width="6" opacity="0.07"/>
    <line x1="1143" y1="453" x2="1165" y2="453" stroke="#fff" stroke-width="10" opacity="0.07"/>
    <line x1="1122" y1="518" x2="1140" y2="531" stroke="#fff" stroke-width="10" opacity="0.07"/>
    <line x1="1066" y1="559" x2="1073" y2="580" stroke="#fff" stroke-width="10" opacity="0.07"/>
    <line x1="997" y1="559" x2="991" y2="580" stroke="#fff" stroke-width="10" opacity="0.07"/>
    <line x1="942" y1="518" x2="924" y2="531" stroke="#fff" stroke-width="10" opacity="0.07"/>
    <line x1="921" y1="453" x2="899" y2="453" stroke="#fff" stroke-width="10" opacity="0.07"/>
    <line x1="942" y1="388" x2="924" y2="375" stroke="#fff" stroke-width="10" opacity="0.07"/>
    <line x1="997" y1="347" x2="991" y2="326" stroke="#fff" stroke-width="10" opacity="0.07"/>
    <line x1="1066" y1="347" x2="1073" y2="326" stroke="#fff" stroke-width="10" opacity="0.07"/>
    <line x1="1122" y1="388" x2="1140" y2="375" stroke="#fff" stroke-width="10" opacity="0.07"/>
  </g>
  <rect width="1600" height="1000" fill="url(#glow1)"/>
  <g transform="translate(1270,700) scale(5.1)" opacity="0.10">
    <path fill-rule="evenodd" d="M6 32c9-11 20-16 30-16C40 16 44 19 48 25C51 22 56.5 15.5 62.25 11.75C58.38 18.12 55.69 25.81 54.44 32C55.69 38.19 58.38 45.88 62.25 52.25C56.5 48.5 51 42 48 39C44 45 40 48 36 48c-10 0-21-5-30-16z M20 24.8a5.6 5.6 0 1 0 0 11.2 5.6 5.6 0 1 0 0-11.2z" fill="#ffffff"/>
  </g>
</svg>
