<svg xmlns="http://www.w3.org/2000/svg" viewBox="0 0 1600 1000" width="1600" height="1000" role="img" aria-label="Red Herrings">
  <defs>
    <linearGradient id="g" x1="0.853" y1="0.015" x2="0.147" y2="0.985">
      <stop offset="0" stop-color="#1b1038"/>
      <stop offset="0.62" stop-color="#8b5cf6"/>
      <stop offset="1" stop-color="#8b5cf6"/>
    </linearGradient>
    <radialGradient id="glow1" cx="0.21" cy="0.25" r="0.6">
      <stop offset="0" stop-color="#ffffff" stop-opacity="0.26"/>
      <stop offset="1" stop-color="#ffffff" stop-opacity="0"/>
    </radialGradient>
    <radialGradient id="glow2" cx="0.76" cy="0.9" r="0.7">
      <stop offset="0" stop-color="#1b1038" stop-opacity="0.55"/>
      <stop offset="1" stop-color="#1b1038" stop-opacity="0"/>
    </radialGradient>
  </defs>
  <rect width="1600" height="1000" fill="url(#g)"/>
  <rect width="1600" height="1000" fill="url(#glow2)"/>
  <g>
    <rect x="150" y="210" width="130" height="92" rx="9" fill="#fff" opacity="0.14"/>
    <rect x="150" y="340" width="130" height="92" rx="9" fill="#fff" opacity="0.10"/>
    <rect x="150" y="470" width="130" height="92" rx="9" fill="#fff" opacity="0.07"/>
    <rect x="150" y="600" width="130" height="92" rx="9" fill="#fff" opacity="0.06"/>
    <rect x="150" y="730" width="130" height="92" rx="9" fill="#fff" opacity="0.10"/>
    <rect x="320" y="210" width="130" height="92" rx="9" fill="#fff" opacity="0.08"/>
    <rect x="320" y="340" width="130" height="92" rx="9" fill="#fff" opacity="0.07"/>
    <rect x="320" y="470" width="130" height="92" rx="9" fill="#fff" opacity="0.13"/>
    <rect x="320" y="600" width="130" height="92" rx="9" fill="#fff" opacity="0.10"/>
    <rect x="320" y="730" width="130" height="92" rx="9" fill="#fff" opacity="0.10"/>
    <rect x="490" y="210" width="130" height="92" rx="9" fill="#fff" opacity="0.05"/>
    <rect x="490" y="340" width="130" height="92" rx="9" fill="#fff" opacity="0.08"/>
    <rect x="490" y="470" width="130" height="92" rx="9" fill="#fff" opacity="0.09"/>
    <rect x="490" y="600" width="130" height="92" rx="9" fill="#fff" opacity="0.04"/>
    <rect x="490" y="730" width="130" height="92" rx="9" fill="#fff" opacity="0.08"/>
    <rect x="660" y="210" width="130" height="92" rx="9" fill="#fff" opacity="0.04"/>
    <rect x="660" y="340" width="130" height="92" rx="9" fill="#fff" opacity="0.05"/>
    <rect x="660" y="470" width="130" height="92" rx="9" fill="#fff" opacity="0.10"/>
    <rect x="660" y="600" width="130" height="92" rx="9" fill="#fff" opacity="0.08"/>
    <rect x="660" y="730" width="130" height="92" rx="9" fill="#fff" opacity="0.11"/>
    <rect x="830" y="210" width="130" height="92" rx="9" fill="#fff" opacity="0.04"/>
    <rect x="830" y="340" width="130" height="92" rx="9" fill="#fff" opacity="0.14"/>
    <rect x="830" y="470" width="130" height="92" rx="9" fill="#fff" opacity="0.09"/>
    <rect x="830" y="600" width="130" height="92" rx="9" fill="#fff" opacity="0.06"/>
    <rect x="830" y="730" width="130" height="92" rx="9" fill="#fff" opacity="0.06"/>
    <rect x="1000" y="210" width="130" height="92" rx="9" fill="#fff" opacity="0.10"/>
    <rect x="1000" y="340" width="130" height="92" rx="9" fill="#fff" opacity="0.07"/>
    <rect x="1000" y="470" width="130" height="92" rx="9" fill="#fff" opacity="0.12"/>
    <rect x="1000" y="600" width="130" height="92" rx="9" fill="#fff" opacity="0.09"/>
    <rect x="1000" y="730" width="130" height="92" rx="9" fill="#fff" opacity="0.03"/>
    <rect x="1170" y="210" width="130" height="92" rx="9" fill="#fff" opacity="0.08"/>
    <rect x="1170" y="340" width="130" height="92" rx="9" fill="#fff" opacity="0.12"/>
    <rect x="1170" y="470" width="130" height="92" rx="9" fill="#fff" opacity="0.12"/>
    <rect x="1170" y="600" width="130" height="92" rx="9" fill="#fff" opacity="0.05"/>
    <rect x="1170" y="730" width="130" height="92" rx="9" fill="#fff" opacity="0.08"/>
    <rect x="1340" y="210" width="130" height="92" rx="9" fill="#fff" opacity="0.10"/>
    <rect x="1340" y="340" width="130" height="92" rx="9" fill="#fff" opacity="0.12"/>
    <rect x="1340" y="470" width="130" height="92" rx="9" fill="#fff" opacity="0.09"/>
    <rect x="1340" y="600" width="130" height="92" rx="9" fill="#fff" opacity="0.14"/>
    <rect x="1340" y="730" width="130" height="92" rx="9" fill="#fff" opacity="0.12"/>
  </g>
  <rect width="1600" height="1000" fill="url(#glow1)"/>
  <g transform="translate(1270,700) scale(5.1)" opacity="0.10">
    <path fill-rule="evenodd" d="M6 32c9-11 20-16 30-16C40 16 44 19 48 25C51 22 56.5 15.5 62.25 11.75C58.38 18.12 55.69 25.81 54.44 32C55.69 38.19 58.38 45.88 62.25 52.25C56.5 48.5 51 42 48 39C44 45 40 48 36 48c-10 0-21-5-30-16z M20 24.8a5.6 5.6 0 1 0 0 11.2 5.6 5.6 0 1 0 0-11.2z" fill="#ffffff"/>
  </g>
</svg>
